<svg width="256" height="256" xmlns="http://www.w3.org/2000/svg"><defs><linearGradient y2="0%" y1="100%" x1="0%" id="a"><stop stop-color="#FF8C45" offset="0%"/><stop stop-color="#80054A" offset="100%"/></linearGradient></defs><path fill="none" d="M-1-1h258v258H-1z"/><rect fill="url(#a)" height="100%" width="100%"/><path d="M140.79 93.895h-12.875c-5.372 0-10.658 2.558-13.557 5.968l-7.674-23.02h-24.47l-20.378 59.683h14.41l6.309-17.052h24.13v34.105H64.052c-9.38 0-17.053-7.674-17.053-17.053V76.842c0-9.379 7.674-17.053 17.053-17.053h59.684c9.379 0 17.052 7.674 17.052 17.053v17.053zm-38.284 17.052H85.283l8.526-24.982 8.697 24.982zm29.757-8.526h59.684c9.38 0 17.053 7.674 17.053 17.053v59.684c0 9.379-7.674 17.053-17.053 17.053h-59.684c-9.379 0-17.052-7.674-17.052-17.053v-59.684c0-9.38 7.673-17.053 17.052-17.053zm61.816 42.632v-9.209H167.05v-18.502h-9.891v18.502h-27.028v9.209h10.913c.938 7.247 4.775 15.773 10.914 22.339-7.418 3.07-16.115 5.286-19.696 5.286-.085.17 1.876 8.27 1.705 12.448 7.163 0 18.844-4.263 27.967-9.805 9.293 5.542 21.145 9.805 28.478 9.805-.17-4.178 1.705-12.278 1.705-12.448-3.666 0-12.704-2.302-20.293-5.372 5.969-6.565 9.72-15.091 10.658-22.253h11.596zm-32.485 16.455c-4.263-3.922-7.248-9.634-8.612-16.455h17.82c-1.45 6.82-4.348 12.533-8.526 16.455l-.341.256s-.256-.17-.341-.256z" fill="#fff"/></svg>